<svg width="24" height="24" viewBox="0 0 24 24" fill="none" xmlns="http://www.w3.org/2000/svg">
<path d="M5.96808 22.7713C6.64996 22.5802 7.27213 22.2186 7.7761 21.7205L23.1765 6.29713C23.7039 5.76687 24 5.04893 24 4.3005C24 3.55208 23.7039 2.83414 23.1765 2.30388L21.6591 0.800348C21.1221 0.28665 20.408 0 19.6654 0C18.9228 0 18.2087 0.28665 17.6717 0.800348L2.27134 16.2075C1.77307 16.7089 1.41656 17.3337 1.23819 18.0182L0.0436099 22.4803C-0.0130652 22.6841 -0.0145249 22.8994 0.0393801 23.104C0.093285 23.3085 0.20061 23.495 0.350327 23.6443C0.578823 23.8693 0.885502 23.9968 1.2059 24L5.96808 22.7713ZM6.62994 20.5726C6.33234 20.876 5.95879 21.0938 5.54836 21.2031L3.9825 21.6234L2.3682 20.0067L2.78792 18.4385C2.90083 18.0291 3.11774 17.6559 3.41749 17.3554L4.03093 16.7572L7.24338 19.9744L6.62994 20.5726ZM8.38953 18.8266L5.17708 15.6093L16.0413 4.72893L19.2538 7.94616L8.38953 18.8266ZM22.0303 5.16544L20.3999 6.79831L17.1875 3.58107L18.8179 1.93204C18.9301 1.81922 19.0634 1.7297 19.2102 1.66862C19.3571 1.60753 19.5145 1.57609 19.6735 1.57609C19.8325 1.57609 19.9899 1.60753 20.1367 1.66862C20.2835 1.7297 20.4169 1.81922 20.529 1.93204L22.0303 3.45174C22.2555 3.67991 22.3818 3.98779 22.3818 4.30859C22.3818 4.62939 22.2555 4.93726 22.0303 5.16544Z" fill="currentColor"/>
</svg>
